# xmcd CD database file
#
# Track frame offsets:
#	150
#	10254
#	18366
#	20340
#	39135
#	55122
#	70044
#	84445
#	100034
#	131751
#	147996
#	160675
#	166344
#	222558
#	242119
#
# Disc length: 3559 seconds
#
# Revision: 2
# Processed by: cddbd v1.5.2PL0 Copyright (c) Steve Scherf et al.
# Submitted via: CDex 1.70beta2
#
DISCID=bb0de50f
DTITLE=JIMI HENDRIX - Acoustic Jams (1
DYEAR=1989
DGENRE=Blues Rock
TTITLE0=Long Hot Summer-Night I.(Solo Acoustic)
TTITLE1=Long Hot Summer Night II.(Solo Acoustic)
TTITLE2=Long Hot Summer Night III
TTITLE3=1983..... (Solo)
TTITLE4=1983..... (Solo)
TTITLE5=Angel(Solo)
TTITLE6=Cherokee Mist(Solo) 
TTITLE7=Astro Man(Acoustic)
TTITLE8=Money(Acoustic Jam)
TTITLE9=Voodoo Child(Unreleased Varsion)
TTITLE10=Come On(Unreleased Version)
TTITLE11=Hear My Train(Solo)
TTITLE12=Voodoo Child(Solo)
TTITLE13=Gypsy Eyes(Solo, Acoustic)
TTITLE14=Beginnings(Band)
EXTD=YEAR: 1989
EXTT0=
EXTT1=
EXTT2=
EXTT3=
EXTT4=
EXTT5=
EXTT6=
EXTT7=
EXTT8=
EXTT9=
EXTT10=
EXTT11=
EXTT12=
EXTT13=
EXTT14=
PLAYORDER=
